<svg xmlns="http://www.w3.org/2000/svg" viewBox="0 0 31.25 26.45"><defs><style>.cls-1{fill:#fff;}</style></defs><g id="Layer_2" data-name="Layer 2"><g id="Layer_5" data-name="Layer 5"><path class="cls-1" d="M17.89,7.25,18,14.53h2.41l.15-7.28Zm1.58,6.28H19l-.11-5.28h.67Z"/><path class="cls-1" d="M19.25,14.91a1.28,1.28,0,0,0-.55.1,1.22,1.22,0,0,0-.47.3,1.39,1.39,0,0,0-.33.46,1.5,1.5,0,0,0-.11.55,1.46,1.46,0,0,0,2.91,0A1.42,1.42,0,0,0,19.25,14.91Zm0,1.84a.44.44,0,0,1-.45-.43.4.4,0,0,1,0-.15.5.5,0,0,1,.1-.14.42.42,0,0,1,.14-.09.47.47,0,0,1,.17,0,.46.46,0,0,1,.47.41A.44.44,0,0,1,19.24,16.75Z"/><path class="cls-1" d="M31.25,19.39a1.67,1.67,0,0,1-.22.81,1.68,1.68,0,0,1-1.4.8H15V20H29.63a.71.71,0,0,0,.31-.08.69.69,0,0,0,.22-.23.54.54,0,0,0,0-.6L19.78,1.3a.61.61,0,0,0-.23-.22A.65.65,0,0,0,19.24,1a.68.68,0,0,0-.31.08.72.72,0,0,0-.23.23l-6.53,11.2-.73-.73,6.4-11a1.67,1.67,0,0,1,.59-.59,1.67,1.67,0,0,1,1.62,0,1.7,1.7,0,0,1,.6.59L31,18.58A1.67,1.67,0,0,1,31.25,19.39Z"/><path class="cls-1" d="M16.55,16.89l-7-7a1.53,1.53,0,0,0-2.12,0l-7,7A1.54,1.54,0,0,0,0,18a1.47,1.47,0,0,0,.44,1,1.48,1.48,0,0,0,1.05.44,1.62,1.62,0,0,0,.5-.08V25A1.47,1.47,0,0,0,2.43,26a1.5,1.5,0,0,0,1.06.44h2A1.5,1.5,0,0,0,6.55,26,1.52,1.52,0,0,0,7,25V23a.52.52,0,0,1,.14-.36.54.54,0,0,1,.36-.14h2a.5.5,0,0,1,.35.14A.53.53,0,0,1,10,23v2A1.47,1.47,0,0,0,10.43,26a1.5,1.5,0,0,0,1.06.44h2A1.5,1.5,0,0,0,14.55,26,1.52,1.52,0,0,0,15,25v-5.6a1.35,1.35,0,0,0,.5.08,1.49,1.49,0,0,0,1.06-2.54Zm-.72,1.4a.5.5,0,0,1-.35.14.54.54,0,0,1-.35-.13L14,17.15V25a.51.51,0,0,1-.5.5h-2a.55.55,0,0,1-.36-.15A.5.5,0,0,1,11,25V23a1.5,1.5,0,0,0-.44-1.06,1.46,1.46,0,0,0-1.06-.44h-2a1.5,1.5,0,0,0-1.06.44A1.46,1.46,0,0,0,6,23v2a.51.51,0,0,1-.5.5h-2a.55.55,0,0,1-.36-.15A.5.5,0,0,1,3,25v-7.8L1.85,18.29a.5.5,0,0,1-.35.14.62.62,0,0,1-.35-.14A.49.49,0,0,1,1,17.94a.54.54,0,0,1,.13-.35l7-7a.53.53,0,0,1,.71,0l2.08,2.08.73.73,4.19,4.19a.5.5,0,0,1,.14.35A.53.53,0,0,1,15.83,18.29Z"/></g></g></svg>