<svg width="26" height="26" viewBox="0 0 26 26" fill="none" xmlns="http://www.w3.org/2000/svg">
<path d="M20.5833 18.418V20.5846H7.58333V18.418C7.58333 18.418 7.58333 14.0846 14.0833 14.0846C20.5833 14.0846 20.5833 18.418 20.5833 18.418ZM17.3333 8.66797C17.3333 8.02518 17.1427 7.39683 16.7856 6.86237C16.4285 6.32791 15.9209 5.91135 15.3271 5.66536C14.7332 5.41938 14.0797 5.35502 13.4493 5.48042C12.8189 5.60582 12.2398 5.91535 11.7852 6.36987C11.3307 6.82439 11.0212 7.40349 10.8958 8.03393C10.7704 8.66436 10.8347 9.31783 11.0807 9.91169C11.3267 10.5056 11.7433 11.0131 12.2777 11.3702C12.8122 11.7274 13.4405 11.918 14.0833 11.918C14.9453 11.918 15.7719 11.5756 16.3814 10.9661C16.9909 10.3566 17.3333 9.52992 17.3333 8.66797ZM20.8 14.1496C21.3922 14.696 21.8696 15.3548 22.2044 16.0876C22.5392 16.8205 22.7247 17.6127 22.75 18.418V20.5846H26V18.418C26 18.418 26 14.6805 20.8 14.1496ZM19.5 5.41797C19.1727 5.41799 18.8474 5.46916 18.5358 5.56964C19.1696 6.47852 19.5095 7.55992 19.5095 8.66797C19.5095 9.77602 19.1696 10.8574 18.5358 11.7663C18.8474 11.8668 19.1727 11.918 19.5 11.918C20.362 11.918 21.1886 11.5756 21.7981 10.9661C22.4076 10.3566 22.75 9.52992 22.75 8.66797C22.75 7.80602 22.4076 6.97937 21.7981 6.36987C21.1886 5.76038 20.362 5.41797 19.5 5.41797ZM8.66667 10.8346H5.41667V7.58464H3.25V10.8346H0V13.0013H3.25V16.2513H5.41667V13.0013H8.66667V10.8346Z" fill="white"/>
</svg>
