<svg width="24" height="24" viewBox="0 0 24 24" fill="none" xmlns="http://www.w3.org/2000/svg">
  <path d="M22 16.92V19.92C22.0011 20.1985 21.9441 20.4742 21.8325 20.7293C21.7209 20.9845 21.5573 21.2136 21.3521 21.4019C21.1468 21.5901 20.9046 21.7335 20.6407 21.8227C20.3769 21.9119 20.0964 21.9451 19.818 21.92C16.7422 21.5856 13.787 20.5341 11.19 18.85C8.77382 17.3147 6.72533 15.2662 5.18999 12.85C3.49997 10.2412 2.44824 7.27099 2.11999 4.18C2.095 3.90347 2.12787 3.62476 2.21649 3.36238C2.30512 3.1 2.44756 2.85926 2.63376 2.65404C2.81996 2.44883 3.046 2.28321 3.29854 2.16708C3.55107 2.05095 3.82501 1.98634 4.102 1.97699H7.102C7.59531 1.96399 8.07359 2.16016 8.425 2.52L10.425 4.52C10.7932 4.88811 10.9999 5.38604 11 5.90499C11 6.42395 10.7932 6.92188 10.425 7.28999L9.405 8.30999C9.03469 8.68013 8.82647 9.18022 8.825 9.7C8.825 10.2198 9.03469 10.7199 9.405 11.09L12.91 14.595C13.2801 14.9653 13.7802 15.175 14.3 15.175C14.8198 15.175 15.3199 14.9653 15.69 14.595L16.71 13.575C17.0781 13.2071 17.576 13.0004 18.095 13C18.614 12.9996 19.1119 13.2064 19.48 13.575L21.48 15.575C21.8398 15.9264 22.036 16.4047 22.023 16.898C22.0177 17.175 21.9521 17.4489 21.8359 17.7014C21.7198 17.954 21.5552 18.18 21.35 18.3652C21.1448 18.5504 20.904 18.6908 20.64 18.7784C20.376 18.866 20.0953 18.8989 19.818 18.875H16.818C16.299 18.8736 15.8011 18.6669 15.433 18.299L14.413 17.279C14.0429 16.9087 13.5428 16.699 13.023 16.7C12.5032 16.699 12.0031 16.9087 11.633 17.279L8.128 20.784C7.75787 21.1543 7.25776 21.364 6.738 21.365C6.21824 21.364 5.71813 21.1543 5.348 20.784L3.348 18.784C2.98816 18.4326 2.79199 17.9543 2.805 17.461V16.92H2.805Z" stroke="currentColor" stroke-width="2" stroke-linecap="round" stroke-linejoin="round"/>
</svg>

