<svg width="28" height="21" viewBox="0 0 28 21" fill="none" xmlns="http://www.w3.org/2000/svg">
<path d="M19.4 17.8333V20.5H0.5V17.8333C0.5 17.8333 0.5 12.5 9.95 12.5C19.4 12.5 19.4 17.8333 19.4 17.8333ZM14.675 5.1667C14.675 4.24373 14.3979 3.34148 13.8787 2.57405C13.3595 1.80662 12.6216 1.20849 11.7582 0.855277C10.8948 0.502069 9.94476 0.409654 9.0282 0.589718C8.11164 0.769782 7.26972 1.21424 6.60892 1.86688C5.94812 2.51952 5.4981 3.35104 5.31579 4.25628C5.13347 5.16153 5.22705 6.09984 5.58467 6.95256C5.94229 7.80527 6.54791 8.53411 7.32493 9.04689C8.10195 9.55967 9.01548 9.83336 9.95 9.83336C11.2031 9.83336 12.405 9.3417 13.2911 8.46653C14.1772 7.59136 14.675 6.40438 14.675 5.1667ZM19.319 12.5C20.1489 13.1343 20.828 13.9406 21.3085 14.862C21.7889 15.7835 22.0591 16.7977 22.1 17.8333V20.5H27.5V17.8333C27.5 17.8333 27.5 12.9934 19.319 12.5ZM18.05 0.500049C17.1209 0.495781 16.2124 0.77009 15.4445 1.28671C16.2645 2.41836 16.7055 3.77509 16.7055 5.1667C16.7055 6.55832 16.2645 7.91505 15.4445 9.04669C16.2124 9.56332 17.1209 9.83763 18.05 9.83336C19.3031 9.83336 20.505 9.3417 21.3911 8.46653C22.2772 7.59136 22.775 6.40438 22.775 5.1667C22.775 3.92903 22.2772 2.74205 21.3911 1.86688C20.505 0.991713 19.3031 0.500049 18.05 0.500049Z" fill="white"/>
</svg>
