<svg width="54" height="42" viewBox="0 0 54 42" fill="none" xmlns="http://www.w3.org/2000/svg">
<path d="M0 18.1955V7.63039C0 7.25865 0.0833471 6.90648 0.250042 6.57388C0.416736 6.24127 0.646431 5.96736 0.939125 5.75214L7.98256 0.469563C8.39343 0.156521 8.86299 0 9.39125 0C9.91951 0 10.3891 0.156521 10.7999 0.469563L17.8434 5.75214C18.1369 5.96736 18.3669 6.24127 18.5336 6.57388C18.7003 6.90648 18.7833 7.25865 18.7825 7.63039V18.1955C18.7825 18.8412 18.5524 19.3941 18.0922 19.8543C17.6321 20.3145 17.0795 20.5441 16.4347 20.5434H12.913C12.5804 20.5434 12.3018 20.4307 12.0771 20.2053C11.8525 19.9799 11.7398 19.7013 11.7391 19.3695V13.4999C11.7391 13.1673 11.6264 12.8887 11.401 12.6641C11.1756 12.4395 10.897 12.3268 10.5652 12.326H8.21734C7.88474 12.326 7.60613 12.4387 7.38152 12.6641C7.15691 12.8895 7.04422 13.1681 7.04344 13.4999V19.3695C7.04344 19.7021 6.93074 19.9811 6.70535 20.2064C6.47996 20.4318 6.20135 20.5441 5.86953 20.5434H2.34781C1.70216 20.5434 1.14965 20.3137 0.690257 19.8543C0.230868 19.3949 0.000782604 18.842 0 18.1955Z" fill="white"/>
<path d="M35.2178 18.1955V7.63039C35.2178 7.25865 35.3011 6.90648 35.4678 6.57388C35.6345 6.24127 35.8642 5.96736 36.1569 5.75214L43.2003 0.469563C43.6112 0.156521 44.0808 0 44.609 0C45.1373 0 45.6068 0.156521 46.0177 0.469563L53.0611 5.75214C53.3546 5.96736 53.5847 6.24127 53.7514 6.57388C53.9181 6.90648 54.0011 7.25865 54.0003 7.63039V18.1955C54.0003 18.8412 53.7702 19.3941 53.31 19.8543C52.8498 20.3145 52.2973 20.5441 51.6525 20.5434H48.1307C47.7981 20.5434 47.5195 20.4307 47.2949 20.2053C47.0703 19.9799 46.9576 19.7013 46.9568 19.3695V13.4999C46.9568 13.1673 46.8441 12.8887 46.6187 12.6641C46.3934 12.4395 46.1148 12.3268 45.7829 12.326H43.4351C43.1025 12.326 42.8239 12.4387 42.5993 12.6641C42.3747 12.8895 42.262 13.1681 42.2612 13.4999V19.3695C42.2612 19.7021 42.1485 19.9811 41.9231 20.2064C41.6977 20.4318 41.4191 20.5441 41.0873 20.5434H37.5656C36.9199 20.5434 36.3674 20.3137 35.908 19.8543C35.4486 19.3949 35.2186 18.842 35.2178 18.1955Z" fill="white"/>
<path d="M11.7396 21.1309C11.7396 29.5592 18.5721 36.3916 27.0004 36.3916C35.4286 36.3916 42.2611 29.5592 42.2611 21.1309H46.9568C46.9568 32.1525 38.022 41.0873 27.0004 41.0873C15.9787 41.0873 7.04395 32.1525 7.04395 21.1309H11.7396Z" fill="white"/>
</svg>
